<?xml version="1.0" encoding="utf-8"?>
<!-- Generator: Adobe Illustrator 24.2.1, SVG Export Plug-In . SVG Version: 6.00 Build 0)  -->
<svg version="1.1" id="圖層_1" xmlns="http://www.w3.org/2000/svg" xmlns:xlink="http://www.w3.org/1999/xlink" x="0px" y="0px"
	 viewBox="0 0 124 34" style="enable-background:new 0 0 124 34;" xml:space="preserve">
<style type="text/css">
	.st0{fill:#FFFFFF;}
</style>
<g>
	<path class="st0" d="M62.6,7.8c-2-0.9-4.1-1.6-6.3-1.9C56,6.3,55.7,7,55.5,7.5c-2.4-0.3-4.7-0.3-7,0c-0.2-0.5-0.5-1.2-0.8-1.6
		c-2.2,0.4-4.3,1-6.3,1.9c-4,5.9-5.1,11.7-4.5,17.4c2.7,1.9,5.2,3.1,7.7,3.9c0.6-0.8,1.2-1.7,1.7-2.7c-0.9-0.3-1.8-0.8-2.6-1.2
		c0.2-0.2,0.4-0.3,0.6-0.5c5,2.3,10.5,2.3,15.5,0c0.2,0.2,0.4,0.3,0.6,0.5c-0.8,0.5-1.7,0.9-2.6,1.2c0.5,0.9,1,1.8,1.7,2.7
		c2.5-0.8,5.1-1.9,7.7-3.9C67.8,18.5,66,12.8,62.6,7.8z M46.9,21.6c-1.5,0-2.8-1.4-2.8-3.1c0-1.7,1.2-3.1,2.8-3.1
		c1.5,0,2.8,1.4,2.8,3.1C49.6,20.3,48.4,21.6,46.9,21.6z M57,21.6c-1.5,0-2.8-1.4-2.8-3.1c0-1.7,1.2-3.1,2.8-3.1
		c1.5,0,2.8,1.4,2.8,3.1C59.8,20.3,58.6,21.6,57,21.6z"/>
	<path class="st0" d="M71.9,7.9h4.1c1,0,1.8,0.2,2.5,0.5c0.7,0.3,1.2,0.7,1.5,1.3c0.3,0.5,0.5,1.2,0.5,1.9c0,0.7-0.2,1.3-0.5,1.9
		c-0.4,0.6-0.9,1-1.6,1.3c-0.7,0.3-1.6,0.5-2.7,0.5h-3.8V7.9z M75.6,13.3c0.7,0,1.2-0.2,1.5-0.5c0.4-0.3,0.5-0.8,0.5-1.4
		c0-0.5-0.2-1-0.5-1.3c-0.3-0.3-0.8-0.5-1.4-0.5h-1.3v3.6L75.6,13.3z"/>
	<path class="st0" d="M86.6,15.2c-0.6-0.1-1.1-0.4-1.5-0.6v-1.7c0.3,0.3,0.8,0.5,1.4,0.7c0.6,0.2,1.1,0.3,1.7,0.3
		c0.3,0,0.4,0,0.6-0.1c0.1-0.1,0.2-0.1,0.2-0.2c0-0.1,0-0.2-0.1-0.3c-0.1-0.1-0.2-0.1-0.4-0.2l-1.3-0.3c-0.7-0.2-1.2-0.4-1.5-0.7
		c-0.3-0.3-0.5-0.7-0.5-1.2c0-0.4,0.1-0.8,0.4-1.1c0.3-0.3,0.6-0.5,1.1-0.7c0.5-0.2,1.1-0.2,1.7-0.2c0.6,0,1.1,0.1,1.6,0.2
		c0.5,0.1,0.9,0.3,1.2,0.5v1.6c-0.3-0.2-0.7-0.3-1.1-0.5c-0.4-0.1-0.9-0.2-1.3-0.2c-0.7,0-1,0.1-1,0.3c0,0.1,0.1,0.2,0.2,0.2
		c0.1,0.1,0.3,0.1,0.6,0.2l1,0.2c0.7,0.1,1.2,0.3,1.5,0.6c0.3,0.3,0.5,0.7,0.5,1.3c0,0.6-0.3,1.1-0.8,1.5c-0.6,0.4-1.3,0.6-2.4,0.6
		C87.7,15.4,87.1,15.3,86.6,15.2z"/>
	<path class="st0" d="M94,15c-0.6-0.3-1.1-0.7-1.4-1.2c-0.3-0.5-0.5-1.1-0.5-1.7c0-0.6,0.2-1.2,0.5-1.7C93,9.9,93.4,9.5,94,9.2
		c0.6-0.3,1.3-0.4,2.2-0.4c1,0,1.9,0.2,2.6,0.7v1.9c-0.2-0.2-0.5-0.3-0.9-0.4c-0.3-0.1-0.7-0.2-1-0.2c-0.6,0-1.2,0.1-1.5,0.4
		c-0.4,0.2-0.5,0.5-0.5,0.9c0,0.4,0.2,0.7,0.5,0.9c0.4,0.2,0.9,0.4,1.5,0.4c0.3,0,0.7-0.1,1-0.2c0.3-0.1,0.6-0.2,0.9-0.4v1.9
		c-0.8,0.5-1.7,0.7-2.7,0.7C95.3,15.4,94.6,15.3,94,15z"/>
	<path class="st0" d="M101.4,15c-0.6-0.3-1.1-0.7-1.4-1.2c-0.3-0.5-0.5-1.1-0.5-1.7c0-0.6,0.2-1.2,0.5-1.7c0.3-0.5,0.8-0.9,1.4-1.2
		c0.6-0.3,1.3-0.4,2.1-0.4c0.8,0,1.5,0.1,2.1,0.4c0.6,0.3,1.1,0.7,1.4,1.2c0.3,0.5,0.5,1,0.5,1.7c0,0.6-0.2,1.2-0.5,1.7
		c-0.3,0.5-0.8,0.9-1.4,1.2c-0.6,0.3-1.3,0.4-2.1,0.4C102.7,15.4,102,15.3,101.4,15z M104.6,13.1c0.3-0.3,0.4-0.6,0.4-1
		c0-0.4-0.1-0.8-0.4-1c-0.3-0.2-0.6-0.4-1-0.4c-0.4,0-0.8,0.1-1.1,0.4c-0.3,0.2-0.4,0.6-0.4,1c0,0.4,0.1,0.8,0.4,1
		c0.3,0.3,0.6,0.4,1.1,0.4C104,13.5,104.3,13.4,104.6,13.1z"/>
	<path class="st0" d="M113.8,9.2v2.3c-0.3-0.2-0.6-0.3-1-0.3c-0.6,0-1,0.2-1.3,0.5c-0.3,0.3-0.4,0.9-0.4,1.6v1.9h-2.6V9.1h2.5V11
		c0.1-0.7,0.4-1.2,0.7-1.6c0.3-0.3,0.7-0.5,1.2-0.5C113.2,8.9,113.6,9,113.8,9.2z"/>
	<path class="st0" d="M122.3,7.7v7.5h-2.6v-1.4c-0.2,0.5-0.5,0.9-1,1.2c-0.4,0.3-1,0.4-1.6,0.4c-0.6,0-1.1-0.1-1.5-0.4
		c-0.4-0.3-0.8-0.7-1-1.2c-0.2-0.5-0.4-1-0.4-1.7c0-0.6,0.1-1.2,0.4-1.7c0.3-0.5,0.6-0.9,1.1-1.2c0.5-0.3,1-0.4,1.6-0.4
		c1.2,0,2,0.5,2.5,1.6V7.7L122.3,7.7z M119.4,13.1c0.3-0.3,0.4-0.6,0.4-1c0-0.4-0.1-0.7-0.4-1c-0.3-0.2-0.6-0.4-1-0.4
		c-0.4,0-0.8,0.1-1,0.4c-0.3,0.2-0.4,0.6-0.4,1c0,0.4,0.1,0.7,0.4,1c0.3,0.3,0.6,0.4,1,0.4C118.8,13.5,119.1,13.3,119.4,13.1z"/>
	<path class="st0" d="M82.6,9.7c0.7,0,1.3-0.5,1.3-1.1c0-0.6-0.6-1.1-1.3-1.1c-0.7,0-1.3,0.5-1.3,1.1C81.4,9.2,81.9,9.7,82.6,9.7z"
		/>
	<path class="st0" d="M81.4,10.5c0.8,0.3,1.8,0.4,2.6,0v4.7h-2.6V10.5z"/>
</g>
<g>
	<path d="M35.3,19.7c-0.2,0-0.5,0-0.8,0c0,0.2,0,0.4,0,0.5c0,0.3-0.1,0.4-0.4,0.4c-0.2,0-0.3,0-0.5,0c0,0,0,0-0.1,0
		c0,0.2,0,0.5,0,0.7c0,0.3-0.1,0.3-0.3,0.3c-0.2,0-0.4,0-0.6,0c0,0.2,0,0.4,0,0.6c0,0.3-0.1,0.3-0.3,0.3c-0.2,0-0.5,0-0.7,0
		c0,0.2,0,0.4,0,0.6c0,0.2-0.1,0.3-0.3,0.3c-0.2,0-0.4,0-0.6,0c0,0.2,0,0.4,0,0.6c0,0.3,0,0.4-0.4,0.4c-0.2,0-0.3,0-0.5,0
		c0,0,0,0,0,0c0,0.2,0,0.3,0,0.5c0,0.3-0.1,0.4-0.4,0.4c-0.2,0-0.4,0-0.6,0c0,0,0,0-0.1,0c0,0.2,0,0.4,0,0.7c0,0.3-0.1,0.4-0.4,0.4
		c-0.1,0-0.2,0-0.3,0c0,0.1,0,0.2,0,0.3c0.1,0,0.3,0,0.4,0c0.2,0,0.3,0.1,0.3,0.3c0,0.2,0,0.4,0,0.7c0.2,0,0.4,0,0.7,0
		c0.3,0,0.4,0.1,0.4,0.4c0,0.6,0,1.2,0,1.7c0,0.3-0.1,0.4-0.4,0.4c-0.6,0-1.2,0-1.8,0c-0.3,0-0.3-0.1-0.3-0.4c0-0.1,0-0.3,0-0.4
		c-1.1,0.1-2.2,0.1-3.4,0.2c0,0.1,0,0.2,0,0.3c0,0.2-0.1,0.3-0.3,0.3c-0.2,0-0.4,0-0.6,0c0,0.4,0,0.7,0,1.1c0,0.2,0,0.4,0,0.6
		c0,0.1-0.1,0.2-0.2,0.3c-0.1,0-0.2,0-0.2,0c-0.8,0-1.7,0-2.5,0c-0.3,0-0.4-0.1-0.4-0.4c0-0.8,0-1.7,0-2.5c0-0.1,0-0.1,0-0.2
		c0-0.2,0.1-0.2,0.3-0.2c0.4,0,0.9,0,1.3,0c0.1,0,0.1,0,0.2,0c-0.1-2.4-0.1-4.8-0.2-7.2c0,0,0,0,0,0c-0.1,0.2-0.1,0.4-0.2,0.6
		c-0.7,2.2-1.3,4.4-2,6.5c-0.1,0.3-0.3,0.4-0.5,0.4c-1,0-2,0-3,0c-0.5,0-1,0-1.6,0c-0.5,0-0.7-0.2-0.8-0.7c-0.1-1.1-0.1-2.3-0.2-3.4
		c-0.1-0.9-0.1-1.9-0.2-2.8c0-0.1,0-0.1,0-0.2c-0.1,0.5-0.2,1-0.4,1.5c-0.4,1.9-0.9,3.7-1.3,5.6c-0.1,0.3-0.3,0.5-0.6,0.4
		c-1.2-0.2-2.4-0.3-3.6-0.5c-0.7-0.1-1.5-0.2-2.2-0.3c-0.1,0-0.1,0-0.2,0C4.1,28.6,3.9,28.4,4,28c0.2-0.7,0.4-1.4,0.6-2.1
		C6.3,19.7,8,13.4,9.7,7.2c0.1-0.4,0.2-0.9,0.4-1.3c0.1-0.3,0.3-0.4,0.6-0.4c1.8,0.1,3.5,0.1,5.3,0.2c0.4,0,0.6,0.2,0.6,0.6
		c0.1,1.2,0.2,2.4,0.3,3.6c0.1,1.2,0.2,2.5,0.3,3.7c0.1,1,0.2,2,0.3,3c0,0,0-0.1,0-0.1c1-3.5,1.9-7,2.9-10.5
		c0.1-0.3,0.3-0.5,0.6-0.5c1.7,0,3.5,0,5.2,0c0.4,0,0.6,0.2,0.6,0.6C26.9,6.9,27,7.8,27,8.7c0.1,1.5,0.2,2.9,0.3,4.4
		c0.1,1.2,0.2,2.5,0.2,3.7c0.1,1.4,0.2,2.8,0.3,4.2c0,0,0,0.1,0,0.1c0.2,0,0.3,0,0.5,0c0-0.2,0-0.3,0-0.5c0-0.5,0-0.5,0.5-0.5
		c0.2,0,0.3,0,0.5,0c0-0.2,0-0.4,0-0.6c0-0.3,0.1-0.3,0.3-0.3c0.2,0,0.4,0,0.6,0c0-0.2,0-0.4,0-0.5c0-0.3,0.1-0.4,0.4-0.4
		c0.2,0,0.3,0,0.5,0c0,0,0,0,0.1,0c0-0.2,0-0.4,0-0.6c0-0.3,0.1-0.4,0.4-0.4c0.2,0,0.4,0,0.6,0c0,0,0,0,0.1,0c0-0.2,0-0.3,0-0.5
		c0-0.3,0.1-0.4,0.4-0.4c0.5,0,1,0,1.5,0c0.4,0,0.8,0,1.2,0C35.3,17.5,35.3,18.6,35.3,19.7z M26.3,5.9c-0.2,0-0.3,0-0.5,0
		c-1.6,0-3.1,0-4.7,0c-0.1,0-0.2,0-0.2,0.2c-1.1,4.2-2.3,8.3-3.4,12.5c-0.1,0.3-0.1,0.5-0.2,0.8c-0.1-0.1-0.1-0.2-0.2-0.3
		c-0.1-0.9-0.2-1.8-0.2-2.7c-0.1-0.9-0.2-1.9-0.3-2.8c-0.1-1-0.2-2-0.3-3c-0.1-0.8-0.2-1.7-0.2-2.5c0-0.6-0.2-1.2-0.1-1.8
		c0,0,0,0-0.1,0c-1,0-2-0.1-3.1-0.1c-0.7,0-1.4,0-2.1-0.1c-0.2,0-0.2,0-0.2,0.2c-0.2,0.7-0.4,1.3-0.5,2c-1.7,6.4-3.5,12.7-5.2,19.1
		c-0.1,0.3-0.2,0.6-0.2,0.9c0.1,0,0.3,0,0.4,0c1.8,0.2,3.5,0.5,5.3,0.7c0.3,0,0.3,0,0.3-0.2c0.5-2.1,1-4.2,1.5-6.3
		c0.3-1.2,0.6-2.4,0.9-3.6c0-0.1,0.1-0.2,0.2-0.2c0.2,3.4,0.4,6.7,0.7,10c0.1,0,0.3-0.1,0.4-0.1c1.4,0,2.8,0,4.2,0.1
		c0.2,0,0.2,0,0.3-0.2c0.8-2.7,1.6-5.3,2.4-8c0.2-0.6,0.4-1.2,0.5-1.7c0-0.1,0.1-0.2,0.2-0.2c0,1.2,0.1,2.4,0.1,3.6
		c0.1,0,0.1,0,0.2,0c0.6,0,1.1,0,1.7,0c0.2,0,0.3,0.1,0.3,0.3c0,0.1,0,0.2,0,0.3c0,0.4,0,0.4,0.4,0.4c0.1,0,0.2,0,0.4,0
		c0.2,0,0.3,0.1,0.3,0.3c0,0.2,0,0.5,0,0.7c0.1,0,0.2,0,0.3,0c0-0.2,0-0.5,0-0.7c0-0.2,0.1-0.3,0.3-0.3c0.2,0,0.3,0,0.5,0
		c0.1,0,0.2,0,0.2-0.2c0-0.2,0-0.3,0-0.5c0-0.2,0.1-0.3,0.3-0.3c0.1,0,0.2,0,0.4,0c0.2,0,0.2,0,0.2-0.2c0-0.3,0-0.6-0.1-1
		c0-0.8-0.1-1.7-0.1-2.5c-0.1-1.1-0.1-2.2-0.2-3.3c-0.1-0.8-0.1-1.7-0.1-2.5c-0.1-1.1-0.1-2.2-0.2-3.3c0-0.7-0.1-1.3-0.1-2
		C26.3,6.9,26.2,6.4,26.3,5.9z M34.3,18.5C34.3,18.5,34.3,18.5,34.3,18.5c0-0.3,0-0.5,0-0.8c0-0.1,0-0.2-0.2-0.2c-0.5,0-0.9,0-1.4,0
		c-0.2,0-0.3,0.1-0.3,0.3c0,0.2,0,0.3,0,0.5c0,0.2,0,0.2-0.2,0.2c-0.2,0-0.3,0-0.5,0c-0.2,0-0.3,0.1-0.3,0.3c0,0.2,0,0.3,0,0.5
		c0,0.1,0,0.1-0.1,0.1c-0.2,0-0.3,0-0.5,0c-0.2,0-0.3,0.1-0.3,0.3c0,0.2,0,0.3,0,0.5c0,0.1,0,0.2-0.2,0.2c-0.1,0-0.3,0-0.4,0
		c-0.2,0-0.3,0.1-0.3,0.3c0,0.2,0,0.3,0,0.5c0,0.1,0,0.2-0.2,0.2c-0.2,0-0.3,0-0.5,0c-0.3,0-0.3,0.1-0.3,0.3c0,0.1,0,0.3,0,0.4
		c0,0.1,0,0.2-0.2,0.2c-0.2,0-0.3,0-0.5,0c-0.2,0-0.3,0.1-0.3,0.3c0,0.2,0,0.3,0,0.5c0,0.1,0,0.2-0.2,0.2c-0.2,0-0.4,0-0.5,0
		c-0.2,0-0.3,0.1-0.3,0.3c0,0.2,0,0.4,0,0.5c0,0.1,0,0.2-0.2,0.2c-0.1,0-0.3,0-0.4,0c-0.2,0-0.3,0.1-0.3,0.3c0,0.5,0,1,0,1.5
		c0,0.1,0,0.1,0.1,0.1c0.6,0,1.1,0,1.7,0c0.1,0,0.2-0.1,0.2-0.2c0-0.2,0-0.4,0-0.7c0-0.1,0-0.2,0.2-0.2c0.2,0,0.4,0,0.6,0
		c0.1,0,0.2-0.1,0.2-0.2c0-0.2,0-0.4,0-0.6c0-0.1,0-0.2,0.2-0.2c0.2,0,0.4,0,0.6,0c0.2,0,0.2,0,0.2-0.2c0-0.2,0-0.4,0-0.6
		c0-0.1,0-0.2,0.2-0.2c0.2,0,0.4,0,0.6,0c0.1,0,0.2-0.1,0.2-0.2c0-0.2,0-0.4,0-0.6c0-0.1,0-0.2,0.2-0.2c0.2,0,0.4,0,0.5,0
		c0.2,0,0.2-0.1,0.2-0.2c0-0.2,0-0.4,0-0.5c0-0.1,0-0.2,0.2-0.2c0.2,0,0.4,0,0.6,0c0.2,0,0.2,0,0.2-0.2c0-0.2,0-0.4,0-0.6
		c0-0.1,0-0.2,0.2-0.2c0.2,0,0.4,0,0.6,0c0.1,0,0.2-0.1,0.2-0.2c0-0.2,0-0.4,0-0.6c0-0.1,0-0.2,0.2-0.2c0.2,0,0.4,0,0.6,0
		c0.1,0,0.2-0.1,0.2-0.2C34.3,19,34.3,18.7,34.3,18.5z M21.9,24.6c0,1.1,0.1,2.1,0.1,3.2c0.2,0,0.3,0,0.5,0c0,0,0,0,0-0.1
		c0-0.2,0-0.4,0-0.5c0-0.2,0.1-0.3,0.3-0.3c0.2,0,0.4,0,0.6,0c0-0.1,0-0.2,0-0.3c-0.2,0-0.4,0-0.6,0c-0.2,0-0.3-0.1-0.3-0.3
		c0-0.3,0-0.6,0-0.9c0-0.2,0-0.5,0-0.8C22.3,24.6,22.1,24.6,21.9,24.6z M23.8,25.3c0,0.3,0,0.5,0,0.8c0,0.1,0,0.2,0.1,0.2
		c0.2,0,0.4,0,0.7,0c0.1,0,0.2,0,0.2-0.2c0-0.5,0-1,0-1.6c0-0.1,0-0.2-0.2-0.2c-0.2,0-0.4,0-0.7,0c-0.1,0-0.2,0-0.1,0.2
		C23.8,24.7,23.8,25,23.8,25.3z M21.4,30.1c-0.1,0-0.2,0-0.3,0c-0.1,0-0.1,0-0.1,0.1c0,0.2,0,0.4,0,0.6c0,0.1,0,0.1,0.1,0.1
		c0.1,0,0.3,0,0.4,0c0.4,0,0.4,0.1,0.4-0.4C21.9,30.1,21.9,30.1,21.4,30.1z M26.2,28c0.1,0,0.2,0,0.3,0c0.1,0,0.2,0,0.2-0.2
		c0-0.2,0-0.3,0-0.5c0-0.1,0-0.2-0.1-0.2c-0.1,0-0.2,0-0.3,0c-0.4,0-0.4,0-0.4,0.4C25.7,28,25.7,28,26.2,28z M25.6,26.7
		c0-0.4,0-0.4-0.4-0.4c0,0,0,0,0,0c-0.5,0-0.4-0.1-0.4,0.4c0,0.5,0,0.5,0.4,0.5C25.6,27.1,25.6,27.1,25.6,26.7z M25.1,28.4
		c0,0.2,0,0.3,0,0.5c0,0.1,0.1,0.1,0.1,0.1c0.1,0,0.2,0,0.2-0.1c0-0.2,0-0.3,0-0.5C25.3,28.4,25.2,28.4,25.1,28.4z"/>
	<path class="st0" d="M26.3,5.9c-0.1,0.5,0,0.9,0,1.4c0,0.7,0.1,1.3,0.1,2c0.1,1.1,0.1,2.2,0.2,3.3c0,0.8,0.1,1.7,0.1,2.5
		c0.1,1.1,0.1,2.2,0.2,3.3c0.1,0.8,0.1,1.7,0.1,2.5c0,0.3,0,0.6,0.1,1c0,0.2,0,0.2-0.2,0.2c-0.1,0-0.2,0-0.4,0
		c-0.2,0-0.3,0.1-0.3,0.3c0,0.2,0,0.3,0,0.5c0,0.1,0,0.2-0.2,0.2c-0.2,0-0.3,0-0.5,0c-0.2,0-0.3,0.1-0.3,0.3c0,0.2,0,0.4,0,0.7
		c-0.1,0-0.2,0-0.3,0c0-0.2,0-0.5,0-0.7c0-0.2-0.1-0.3-0.3-0.3c-0.1,0-0.2,0-0.4,0C24,23,24,23,24,22.6c0-0.1,0-0.2,0-0.3
		c0-0.2-0.1-0.3-0.3-0.3c-0.6,0-1.1,0-1.7,0c0,0-0.1,0-0.2,0c0-1.2-0.1-2.4-0.1-3.6c-0.2,0-0.2,0.1-0.2,0.2
		c-0.2,0.6-0.4,1.2-0.5,1.7c-0.8,2.7-1.6,5.3-2.4,8c0,0.2-0.1,0.2-0.3,0.2c-1.4,0-2.8-0.1-4.2-0.1c-0.1,0-0.2,0-0.4,0.1
		c-0.2-3.3-0.4-6.7-0.7-10c-0.1,0-0.2,0.1-0.2,0.2c-0.3,1.2-0.6,2.4-0.9,3.6c-0.5,2.1-1,4.2-1.5,6.3c-0.1,0.3-0.1,0.3-0.3,0.2
		c-1.8-0.2-3.5-0.5-5.3-0.7c-0.1,0-0.3,0-0.4,0c0.1-0.3,0.2-0.6,0.2-0.9C6.5,20.9,8.3,14.5,10,8.2c0.2-0.7,0.4-1.3,0.5-2
		C10.6,6,10.6,6,10.8,6c0.7,0,1.4,0,2.1,0.1c1,0,2,0.1,3.1,0.1c0,0,0.1,0,0.1,0c-0.1,0.6,0,1.2,0.1,1.8c0.1,0.8,0.1,1.7,0.2,2.5
		c0.1,1,0.2,2,0.3,3c0.1,0.9,0.2,1.9,0.3,2.8c0.1,0.9,0.2,1.8,0.2,2.7c0,0.1,0.1,0.2,0.2,0.3c0.1-0.3,0.2-0.6,0.2-0.8
		c1.1-4.2,2.3-8.3,3.4-12.5c0-0.1,0.1-0.2,0.2-0.2c1.6,0,3.1,0,4.7,0C26,5.9,26.2,5.9,26.3,5.9z"/>
	<path class="st0" d="M34.3,18.5c0,0.3,0,0.5,0,0.8c0,0.1,0,0.2-0.2,0.2c-0.2,0-0.4,0-0.6,0c-0.1,0-0.2,0-0.2,0.2c0,0.2,0,0.4,0,0.6
		c0,0.1-0.1,0.2-0.2,0.2c-0.2,0-0.4,0-0.6,0c-0.1,0-0.2,0-0.2,0.2c0,0.2,0,0.4,0,0.6c0,0.2,0,0.2-0.2,0.2c-0.2,0-0.4,0-0.6,0
		c-0.1,0-0.2,0-0.2,0.2c0,0.2,0,0.4,0,0.5c0,0.2,0,0.2-0.2,0.2c-0.2,0-0.4,0-0.5,0c-0.1,0-0.2,0-0.2,0.2c0,0.2,0,0.4,0,0.6
		c0,0.1-0.1,0.2-0.2,0.2c-0.2,0-0.4,0-0.6,0c-0.1,0-0.2,0-0.2,0.2c0,0.2,0,0.4,0,0.6c0,0.2,0,0.2-0.2,0.2c-0.2,0-0.4,0-0.6,0
		c-0.1,0-0.2,0-0.2,0.2c0,0.2,0,0.4,0,0.6c0,0.1,0,0.2-0.2,0.2c-0.2,0-0.4,0-0.6,0c-0.1,0-0.2,0-0.2,0.2c0,0.2,0,0.4,0,0.7
		c0,0.1,0,0.2-0.2,0.2c-0.6,0-1.1,0-1.7,0c-0.1,0-0.1,0-0.1-0.1c0-0.5,0-1,0-1.5c0-0.2,0.1-0.3,0.3-0.3c0.1,0,0.3,0,0.4,0
		c0.1,0,0.2,0,0.2-0.2c0-0.2,0-0.4,0-0.5c0-0.2,0.1-0.3,0.3-0.3c0.2,0,0.4,0,0.5,0c0.1,0,0.2,0,0.2-0.2c0-0.2,0-0.3,0-0.5
		c0-0.2,0.1-0.3,0.3-0.3c0.2,0,0.3,0,0.5,0c0.1,0,0.2,0,0.2-0.2c0-0.1,0-0.3,0-0.4c0-0.3,0.1-0.3,0.3-0.3c0.2,0,0.3,0,0.5,0
		c0.2,0,0.2-0.1,0.2-0.2c0-0.2,0-0.3,0-0.5c0-0.2,0.1-0.3,0.3-0.3c0.1,0,0.3,0,0.4,0c0.1,0,0.2,0,0.2-0.2c0-0.2,0-0.3,0-0.5
		c0-0.2,0.1-0.3,0.3-0.3c0.2,0,0.3,0,0.5,0c0.1,0,0.1,0,0.1-0.1c0-0.2,0-0.3,0-0.5c0-0.2,0.1-0.3,0.3-0.3c0.2,0,0.3,0,0.5,0
		c0.2,0,0.2-0.1,0.2-0.2c0-0.2,0-0.3,0-0.5c0-0.2,0.1-0.3,0.3-0.3c0.5,0,0.9,0,1.4,0c0.1,0,0.2,0.1,0.2,0.2
		C34.3,17.9,34.3,18.2,34.3,18.5C34.3,18.5,34.3,18.5,34.3,18.5z"/>
	<path class="st0" d="M21.9,24.6c0.2,0,0.4,0,0.6,0c0,0.3,0,0.5,0,0.8c0,0.3,0,0.6,0,0.9c0,0.2,0.1,0.3,0.3,0.3c0.2,0,0.4,0,0.6,0
		c0,0.1,0,0.2,0,0.3c-0.2,0-0.4,0-0.6,0c-0.2,0-0.3,0.1-0.3,0.3c0,0.2,0,0.4,0,0.5c0,0,0,0,0,0.1c-0.1,0-0.3,0-0.5,0
		C22,26.7,22,25.7,21.9,24.6z"/>
	<path class="st0" d="M23.8,25.3c0-0.3,0-0.5,0-0.8c0-0.1,0-0.2,0.1-0.2c0.2,0,0.4,0,0.7,0c0.1,0,0.2,0,0.2,0.2c0,0.5,0,1,0,1.6
		c0,0.1,0,0.2-0.2,0.2c-0.2,0-0.4,0-0.7,0c-0.1,0-0.1,0-0.1-0.2C23.8,25.8,23.8,25.5,23.8,25.3z"/>
	<path class="st0" d="M21.4,30.1c0.5,0,0.5,0,0.5,0.5c0,0.4,0.1,0.4-0.4,0.4c-0.1,0-0.3,0-0.4,0c-0.1,0-0.1,0-0.1-0.1
		c0-0.2,0-0.4,0-0.6c0-0.1,0-0.1,0.1-0.1C21.1,30.1,21.3,30.1,21.4,30.1z"/>
	<path class="st0" d="M26.2,28c-0.4,0-0.4,0-0.4-0.4c0-0.4,0-0.4,0.4-0.4c0.1,0,0.2,0,0.3,0c0.1,0,0.1,0,0.1,0.2c0,0.2,0,0.4,0,0.5
		c0,0.1-0.1,0.2-0.2,0.2C26.3,28,26.2,28,26.2,28z"/>
	<path class="st0" d="M25.6,26.7c0,0.4,0,0.4-0.4,0.4c-0.4,0-0.4,0-0.4-0.5c0-0.5-0.1-0.4,0.4-0.4c0,0,0,0,0,0
		C25.6,26.3,25.6,26.3,25.6,26.7z"/>
	<path class="st0" d="M25.1,28.4c0.1,0,0.2,0,0.3,0c0,0.2,0,0.3,0,0.5c0,0.1-0.1,0.1-0.2,0.1c-0.1,0-0.1,0-0.1-0.1
		C25.1,28.7,25.1,28.5,25.1,28.4z"/>
</g>
<g>
	<path class="st0" d="M75.2,21.4l-1.4,0.1c-0.1,0.1-0.3,0.2-0.5,0.2c-0.4,0-0.6-0.1-0.6-0.4l-0.3-2c0,0,0-0.1,0-0.1
		c0-0.2,0.1-0.3,0.3-0.4c0.1,0,0.2-0.1,0.3-0.1c0.2,0,0.3,0,0.4,0.1l1.8-0.1v-0.4l-2.5,0.2c0,0,0,0-0.1,0c-0.1,0-0.2,0-0.3-0.1
		c-0.1-0.1-0.1-0.2-0.1-0.3c0-0.3,0.1-0.4,0.4-0.5l2.6-0.2V17c0-0.3,0.2-0.5,0.6-0.5c0.4,0,0.6,0.2,0.6,0.5v0.3l2.4-0.2
		c0,0,0,0,0.1,0c0.3,0,0.4,0.2,0.4,0.5c0,0.3-0.1,0.4-0.4,0.5l-2.5,0.2v0.4l2-0.1c0.1,0,0.1,0,0.2,0c0.5,0,0.7,0.2,0.7,0.7
		c0,0,0,0.1,0,0.2l-0.2,1.5c0,0.3-0.2,0.5-0.5,0.5c0.6,0.4,0.9,0.7,0.9,0.9c0,0.1-0.1,0.3-0.2,0.4c-0.1,0.1-0.2,0.1-0.4,0.1
		c-0.2,0-0.3-0.1-0.4-0.2c-0.1-0.1-0.1-0.2-0.2-0.3c0,0-0.2,0-0.5,0.1l-0.4,0c0.4,0,0.5,0.2,0.5,0.5l2.1-0.1l0,0
		c0.2,0,0.3,0.1,0.4,0.2c0,0.1,0.1,0.2,0.1,0.3c0,0.3-0.1,0.4-0.4,0.4l-2.2,0.1v1.4c0,0.6-0.3,0.9-0.8,0.9c-0.2,0-0.6-0.1-1-0.2
		c-0.2-0.1-0.3-0.1-0.4-0.2c-0.2-0.1-0.2-0.2-0.2-0.4c0-0.2,0.1-0.4,0.3-0.4c0,0,0.1,0,0.2,0c0.2,0,0.3,0.1,0.5,0.1
		c0.1,0,0.2,0,0.2-0.1c0,0,0-0.1,0-0.1v-0.9l-2.7,0.1c0.8,0.3,1.2,0.6,1.2,1c0,0.1,0,0.2-0.1,0.3c-0.1,0.2-0.3,0.3-0.5,0.3
		c-0.2,0-0.3-0.1-0.4-0.2c-0.2-0.3-0.4-0.5-0.7-0.7c-0.1-0.1-0.2-0.3-0.2-0.4c0-0.1,0-0.1,0.1-0.2L71.7,24l0,0c-0.2,0-0.3,0-0.4-0.2
		c-0.1-0.1-0.1-0.2-0.1-0.3c0-0.2,0.1-0.3,0.2-0.4c0.1,0,0.1-0.1,0.2-0.1l5.1-0.2v-0.1c0-0.2,0.1-0.3,0.3-0.4l-0.6,0.1
		c-0.8,0.1-1.6,0.2-2.3,0.2c-0.8,0.1-1.2,0.1-1.3,0.1c-0.2,0-0.3-0.1-0.4-0.2c0-0.1-0.1-0.1-0.1-0.2c0-0.2,0.1-0.4,0.3-0.4
		c0.1,0,0.2,0,0.5,0c0.4,0,0.9,0,1.6-0.1l0.4,0V21.4z M75.2,19.7v-0.3l-1.6,0.1l0,0.3L75.2,19.7z M75.2,20.3l-1.5,0.1l0,0.3l1.4-0.1
		V20.3z M76.3,19.6l1.7-0.1l0-0.1c0,0,0,0,0,0c0-0.1-0.1-0.2-0.3-0.2l-1.4,0.1V19.6z M76.3,20.2v0.3l1.6-0.1l0-0.3L76.3,20.2z
		 M76.4,21.3v0.4c0.1,0,0.3,0,0.5,0c0,0,0.1,0,0.3,0c0.1,0,0.3,0,0.6,0c0-0.1,0-0.1,0-0.2c0-0.1,0-0.2,0.1-0.2L76.4,21.3z"/>
	<path class="st0" d="M88.6,22.7l-1.9,0.1v2.3c0,0.3-0.2,0.5-0.6,0.5s-0.6-0.2-0.6-0.5v-2.2L83.7,23c-0.2,1-0.5,1.8-0.8,2.4
		c-0.1,0.2-0.3,0.3-0.5,0.3c-0.1,0-0.1,0-0.2-0.1c-0.2-0.1-0.3-0.2-0.3-0.4c0-0.1,0-0.2,0.1-0.4c0.4-1.1,0.6-2.7,0.6-4.7
		c0-0.9,0-1.6-0.1-2.2c0,0,0-0.1,0-0.1c0-0.2,0.1-0.4,0.4-0.5c0.1,0,0.2,0,0.3,0c0.3,0,0.5,0.1,0.6,0.2l5-0.5c0.1,0,0.1,0,0.2,0
		c0.6,0,0.9,0.3,0.9,1v6.9c0,0.3-0.1,0.5-0.2,0.7c-0.2,0.2-0.4,0.3-0.7,0.3c-0.2,0-0.6-0.1-1-0.3c-0.2-0.1-0.3-0.2-0.5-0.2
		c-0.2-0.1-0.2-0.2-0.2-0.4c0-0.3,0.1-0.4,0.4-0.4c0.1,0,0.1,0,0.2,0c0.2,0.1,0.4,0.1,0.5,0.1c0.2,0,0.2-0.1,0.2-0.3V22.7z
		 M85.6,21.8v-1.1l-1.7,0.1c0,0.4,0,0.8-0.1,1.1L85.6,21.8z M85.6,19.6v-1.1l-1.7,0.2l0,0.7v0.1l0,0.4L85.6,19.6z M88.6,19.4v-0.9
		c0-0.2-0.1-0.3-0.3-0.3c0,0,0,0,0,0l-1.6,0.1v1.1L88.6,19.4z M88.6,21.6v-1.2l-1.9,0.2v1.2L88.6,21.6z"/>
	<path class="st0" d="M94.3,19.1v6.3c0,0.1,0,0.2-0.1,0.3c-0.1,0.1-0.3,0.2-0.5,0.2c-0.3,0-0.4-0.1-0.5-0.3c0-0.1-0.1-0.2-0.1-0.2
		V21c-0.2,0.2-0.3,0.4-0.4,0.5c-0.2,0.2-0.3,0.3-0.5,0.3c-0.1,0-0.2,0-0.3-0.1c-0.1-0.1-0.1-0.2-0.1-0.3c0-0.1,0.1-0.3,0.3-0.6
		c0.3-0.4,0.6-1,0.9-1.7c0.3-0.6,0.6-1.3,0.8-1.8c0.1-0.4,0.3-0.5,0.6-0.5c0.1,0,0.2,0,0.3,0.1c0.2,0.1,0.3,0.3,0.3,0.5
		C95,17.5,94.7,18.1,94.3,19.1z M100.7,18.1V25c0,0.7-0.3,1-0.8,1c-0.3,0-0.6-0.1-1.1-0.3c-0.3-0.1-0.5-0.2-0.7-0.3
		c-0.1-0.1-0.2-0.2-0.2-0.3c0-0.2,0.1-0.4,0.4-0.4c0.1,0,0.1,0,0.2,0c0.3,0.1,0.5,0.1,0.7,0.1c0.2,0,0.3-0.1,0.3-0.3v-5.9
		c0-0.2-0.1-0.3-0.3-0.3l-3.5,0.3c0,0,0,0-0.1,0c-0.3,0-0.5-0.2-0.5-0.5c0-0.4,0.2-0.5,0.5-0.6l4-0.3c0.1,0,0.1,0,0.2,0
		C100.4,17.1,100.7,17.5,100.7,18.1z M98.1,20.1l-2.5,0.2c0,0,0,0-0.1,0c-0.2,0-0.3-0.1-0.4-0.3c0-0.1-0.1-0.2-0.1-0.3
		c0-0.3,0.1-0.5,0.4-0.5l2.5-0.2c0,0,0,0,0.1,0c0.1,0,0.2,0,0.3,0.1c0.1,0.1,0.1,0.2,0.1,0.4C98.6,19.9,98.4,20.1,98.1,20.1z
		 M98.4,22.9c0.1,0.1,0.2,0.2,0.2,0.4c0,0.3-0.1,0.5-0.4,0.5L96.4,24c0,0.3-0.2,0.4-0.5,0.4c-0.3,0-0.5-0.1-0.5-0.4l-0.2-2.7
		c0,0,0,0,0,0c0-0.1,0.1-0.3,0.2-0.3c0.1-0.1,0.2-0.1,0.4-0.1c0.2,0,0.4,0.1,0.5,0.2l1.6-0.2c0.1,0,0.1,0,0.2,0
		c0.4,0,0.7,0.2,0.7,0.6c0,0.1,0,0.1,0,0.2L98.4,22.9z M97.4,22.9l0.1-0.9c0,0,0,0,0,0c0-0.1,0-0.1-0.1-0.1c0,0,0,0-0.1,0L96.3,22
		l0.1,1.1L97.4,22.9z"/>
	<path class="st0" d="M104.8,22.5l-1,0.1c-0.1,1-0.4,1.9-0.7,2.5c-0.1,0.2-0.2,0.3-0.2,0.4c-0.1,0.1-0.2,0.2-0.4,0.2
		c-0.1,0-0.2,0-0.3-0.1c-0.1-0.1-0.2-0.2-0.2-0.3c0-0.1,0-0.2,0.1-0.4c0.3-0.7,0.4-1.4,0.5-2.3c0.1-0.7,0.1-1.7,0.1-2.8
		c0-0.6,0-1.3,0-2.1c0-0.1,0-0.2,0.1-0.3c0.1-0.1,0.3-0.2,0.4-0.2c0.2,0,0.4,0.1,0.5,0.2l1.2-0.2c0.1,0,0.2,0,0.2,0
		c0.3,0,0.5,0.1,0.6,0.3c0.1,0.1,0.1,0.3,0.1,0.5v6.8c0,0.6-0.2,0.9-0.7,0.9c-0.2,0-0.5-0.1-0.8-0.2c-0.4-0.2-0.6-0.4-0.6-0.6
		c0-0.1,0-0.1,0-0.2c0.1-0.1,0.2-0.2,0.3-0.2c0.1,0,0.1,0,0.2,0c0.1,0,0.2,0.1,0.3,0.1c0.1,0,0.2-0.1,0.2-0.2V22.5z M104.8,21.5
		v-1.1l-0.9,0.1c0,0.4,0,0.7,0,1.1L104.8,21.5z M104.8,19.4v-0.8c0-0.1-0.1-0.2-0.2-0.2c0,0,0,0-0.1,0l-0.7,0.1l0,1.1L104.8,19.4z
		 M107.7,18.3v2.4l2.3-0.2c0.1,0,0.1,0,0.1,0c0.6,0,0.8,0.2,0.8,0.7c0,0.4-0.2,1-0.6,1.8c-0.1,0.3-0.3,0.5-0.5,0.8
		c0.5,0.5,1,0.9,1.5,1.2c0.2,0.1,0.3,0.2,0.3,0.3c0,0.1-0.1,0.2-0.3,0.2c-0.3,0.1-0.6,0.2-0.8,0.2c-0.2,0-0.4-0.1-0.6-0.2
		c-0.2-0.2-0.5-0.5-0.8-0.9c-0.6,0.6-1,1-1.2,1c-0.1,0-0.2,0-0.3-0.1s-0.1-0.2-0.1-0.3c0-0.1,0.1-0.3,0.3-0.5
		c0.2-0.2,0.4-0.5,0.7-0.9l0-0.1c-0.5-0.8-0.8-1.3-0.8-1.5c0-0.1,0-0.2,0.1-0.3c0.1-0.1,0.2-0.1,0.3-0.1c0.1,0,0.3,0.1,0.4,0.3
		c0.1,0.1,0.2,0.3,0.6,0.8c0.3-0.6,0.4-1,0.4-1.3c0-0.1,0-0.1-0.1-0.1c0,0,0,0-0.1,0l-1.7,0.1v3.7c0,0.3-0.2,0.5-0.6,0.5
		c-0.4,0-0.6-0.2-0.6-0.5v-7.1c-0.2-0.1-0.3-0.2-0.3-0.5c0-0.3,0.2-0.5,0.5-0.5l3.1-0.3c0.1,0,0.1,0,0.2,0c0.5,0,0.8,0.3,0.8,0.8
		c0,0.2,0,0.5-0.1,1c-0.1,0.4-0.2,0.7-0.3,0.9c-0.2,0.3-0.4,0.4-0.7,0.4c-0.3,0-0.6-0.1-1.1-0.4c-0.2-0.1-0.3-0.2-0.3-0.4
		c0-0.1,0-0.1,0-0.2c0.1-0.1,0.1-0.2,0.3-0.2c0,0,0.1,0,0.1,0c0.1,0,0.3,0.1,0.4,0.1c0.1,0,0.2-0.1,0.3-0.2c0.1-0.3,0.1-0.5,0.1-0.7
		c0-0.1,0-0.1-0.1-0.1c0,0,0,0-0.1,0L107.7,18.3z"/>
	<path class="st0" d="M114.5,23.1l1.5-0.2c0.1,0,0.1,0,0.2,0c0.4,0,0.6,0.2,0.6,0.6c0,0.1,0,0.1,0,0.2l-0.2,1
		c0.1,0.1,0.2,0.2,0.2,0.4c0,0.3-0.1,0.4-0.4,0.4l-1.6,0.2c-0.1,0.2-0.3,0.3-0.5,0.3c-0.3,0-0.5-0.1-0.5-0.5l-0.2-2
		c-0.4,0.1-0.6,0.2-0.7,0.2c-0.1,0-0.2-0.1-0.3-0.2c-0.1-0.1-0.1-0.2-0.1-0.2c0-0.1,0-0.2,0.1-0.3c0,0,0.1-0.1,0.3-0.1
		c0.8-0.3,1.6-0.7,2.2-1.4c0,0,0.1-0.1,0.1-0.1l-1.8,0.1c0,0,0,0,0,0c-0.2,0-0.3-0.1-0.4-0.2c-0.1-0.1-0.1-0.2-0.1-0.3
		c0-0.3,0.1-0.5,0.4-0.5l2.6-0.2c0.1-0.2,0.2-0.4,0.3-0.5c0.1-0.2,0.3-0.3,0.5-0.3c0.1,0,0.2,0,0.3,0.1c0.2,0.1,0.3,0.2,0.3,0.4
		c0,0.1,0,0.2-0.1,0.3l3.6-0.2h0c0.3,0,0.5,0.2,0.5,0.5c0,0.3-0.1,0.4-0.4,0.5l-2.2,0.1c0.9,0.6,1.9,1.1,3,1.4
		c0.2,0.1,0.4,0.2,0.4,0.3c0,0.1-0.1,0.2-0.2,0.2c-0.5,0.2-0.8,0.3-1.1,0.3c0,0.1,0,0.1,0,0.2l-0.2,1c0.2,0.1,0.3,0.2,0.3,0.4
		c0,0.3-0.1,0.4-0.4,0.4l-1.8,0.1c-0.1,0.2-0.2,0.3-0.5,0.3c-0.3,0-0.5-0.1-0.5-0.4l-0.2-2.2c0,0,0,0,0-0.1c0-0.1,0.1-0.3,0.2-0.3
		c0.1-0.1,0.2-0.1,0.4-0.1c0.2,0,0.3,0.1,0.4,0.2l1.2-0.1c-0.8-0.5-1.4-1-1.9-1.5l-0.9,0.1C116.1,22,115.4,22.6,114.5,23.1
		L114.5,23.1z M116.6,18.8c0.1,0.1,0.1,0.2,0.1,0.3c0,0.3-0.1,0.4-0.4,0.4l-1.8,0.1c-0.1,0.2-0.3,0.3-0.5,0.3
		c-0.3,0-0.5-0.1-0.5-0.4l-0.2-2c0,0,0-0.1,0-0.1c0-0.2,0.1-0.3,0.2-0.4c0.1,0,0.2-0.1,0.3-0.1c0.2,0,0.3,0.1,0.5,0.2L116,17
		c0,0,0.1,0,0.2,0c0.4,0,0.6,0.2,0.6,0.6c0,0.1,0,0.2,0,0.2L116.6,18.8z M115.6,18.8l0.1-0.7c0-0.1-0.1-0.2-0.2-0.2c0,0,0,0,0,0
		l-1,0.1l0.1,0.9L115.6,18.8z M114.7,23.9l0.1,0.9l0.9-0.1l0.1-0.7c0,0,0,0,0,0c0-0.1-0.1-0.2-0.2-0.2c0,0,0,0-0.1,0L114.7,23.9z
		 M120.7,18.7c0.1,0.1,0.2,0.2,0.2,0.4c0,0.3-0.1,0.4-0.4,0.4l-2,0.1c-0.1,0.2-0.3,0.2-0.5,0.2c-0.3,0-0.5-0.1-0.5-0.4l-0.2-2.1
		c0,0,0,0,0-0.1c0-0.2,0.1-0.3,0.2-0.4c0.1,0,0.2-0.1,0.3-0.1c0.2,0,0.3,0.1,0.4,0.2l1.8-0.1c0.1,0,0.1,0,0.1,0
		c0.5,0,0.7,0.2,0.7,0.6c0,0.1,0,0.2,0,0.3L120.7,18.7z M119.6,18.7l0.1-0.8c0,0,0,0,0,0c0-0.1-0.1-0.2-0.2-0.2c0,0,0,0,0,0
		l-1.1,0.1l0.1,0.9L119.6,18.7z M119.6,24.7l0.1-0.8c0,0,0,0,0-0.1c0-0.1-0.1-0.2-0.2-0.2l-0.9,0.1l0.1,1L119.6,24.7z"/>
</g>
</svg>
